<?xml version="1.0" encoding="utf-8"?>
<!-- Generator: Adobe Illustrator 18.0.0, SVG Export Plug-In . SVG Version: 6.00 Build 0)  -->
<!DOCTYPE svg PUBLIC "-//W3C//DTD SVG 1.1//EN" "http://www.w3.org/Graphics/SVG/1.1/DTD/svg11.dtd">
<svg version="1.1" id="Capa_1" xmlns="http://www.w3.org/2000/svg" xmlns:xlink="http://www.w3.org/1999/xlink" x="0px" y="0px"
	 viewBox="0 0 841.9 595.3" enable-background="new 0 0 841.9 595.3" xml:space="preserve">
<g display="none">
	<path display="inline" fill="#273D4A" d="M681.5,140.7l-245-120.1c-13.4-6.6-29-6.6-42.4,0l-110.2,54h58.6
		c22.6,0,39.1,5.7,49.5,17.1c10.4,11.4,15.6,24.5,15.6,39.1c0,10.7-3,20.4-9,29c-6,8.6-15,14.6-27,17.8c27.8,6.7,41.7,23.4,41.7,50
		c0,15.9-4.9,30.2-14.7,42.7c-9.8,12.5-30.7,18.8-62.8,18.8H233.5V99.3l-84.5,41.4c-16.5,8.1-27,24.9-27,43.3v227.3
		c0,18.4,10.5,35.2,27,43.3l245,120.1c13.4,6.6,29,6.6,42.4,0l123.2-60.4H547V360.8l-39.7,153.4h-41.8l-41.3-153.4v153.4h-49.4
		V299.7H461l31.1,114l29.7-114h86.4v190.8l73.3-35.9c16.5-8.1,27-24.9,27-43.3V184C708.5,165.6,698,148.8,681.5,140.7z"/>
	<path display="inline" fill="#273D4A" d="M340.9,151c3.1-3.9,4.7-8,4.7-12.4c0-11.9-7.3-17.9-22-17.9h-29.4v36.2h30.5
		C332.4,156.9,337.8,154.9,340.9,151z"/>
	<path display="inline" fill="#273D4A" d="M326.3,241.4c8,0,13.8-2,17.5-5.9c3.7-3.9,5.6-8.4,5.6-13.3c0-4.9-1.8-9.5-5.4-13.6
		c-3.6-4.1-10.3-6.2-19.9-6.2h-29.9v39H326.3z"/>
	<g display="inline">
		<polygon fill="#FFFFFF" points="521.8,299.7 492.1,413.6 461,299.7 374.9,299.7 374.9,514.2 424.3,514.2 424.3,360.8 465.5,514.2 
			507.3,514.2 547,360.8 547,514.2 559.7,514.2 608.2,490.5 608.2,299.7 		"/>
		<path fill="#FFFFFF" d="M335.7,289.2c32.1,0,53-6.3,62.8-18.8c9.8-12.5,14.7-26.8,14.7-42.7c0-26.6-13.9-43.3-41.7-50
			c12-3.2,20.9-9.2,27-17.8c6-8.6,9-18.3,9-29c0-14.7-5.2-27.7-15.6-39.1c-10.4-11.4-26.9-17.1-49.5-17.1h-58.6l-50.4,24.7v189.9
			H335.7z M294.2,120.7h29.4c14.7,0,22,6,22,17.9c0,4.4-1.6,8.5-4.7,12.4c-3.1,3.9-8.5,5.8-16.2,5.8h-30.5V120.7z M324.1,202.5
			c9.6,0,16.3,2.1,19.9,6.2c3.6,4.1,5.4,8.7,5.4,13.6c0,4.9-1.9,9.3-5.6,13.3c-3.7,3.9-9.6,5.9-17.5,5.9h-32.1v-39H324.1z"/>
	</g>
</g>
<g display="none">
	<path display="inline" fill="#273D4A" d="M626.4,440.7L433.5,553.1c-11,6.4-24.6,6.4-35.5,0L205.1,440.7
		c-10.9-6.3-17.5-17.9-17.5-30.5V185.1c0-12.6,6.7-24.2,17.5-30.5L398,42.2c11-6.4,24.6-6.4,35.5,0l192.8,112.3
		c10.9,6.3,17.5,17.9,17.5,30.5v225.2C643.9,422.8,637.2,434.4,626.4,440.7z"/>
	
		<text transform="matrix(0.9837 -0.1797 0.1797 0.9837 284.4707 361.357)" display="inline" fill="#FFFFFF" font-family="'FreestyleScript-Regular'" font-size="408.2446">B</text>
	
		<text transform="matrix(0.9953 -9.642054e-002 9.642054e-002 0.9953 358.9888 501.5994)" display="inline" fill="#FFFFFF" font-family="'FreestyleScript-Regular'" font-size="395.3698">M</text>
</g>
<g>
	<path fill="none" d="M398.4,278.1c-12.1-0.1-23.5-0.8-34.2-2v3.6c14.2,3.3,25.2,9.8,33,19.5l-5.7,134.8
		c-1.5,29.9-10.5,47-27.2,51.3v3.6c16.5-1.6,27.8-2.4,34.2-2.4c4.7,0,14.5,0.6,29.2,1.8c3.6,0.4,5.4,0.6,5.5,0.6v-3.6
		c-17.7-2.4-26.6-15-26.6-37.9c0.1-1.1,0.2-6,0.4-14.9l5.1-117.9L493.7,489l9.1-18.8l-90-191.7L398.4,278.1z"/>
	<path fill="none" d="M573.7,278.5l-63.2,137.6l-64.8-137.6H429l81.7,174.5l63.2-138.4l5.1,115.1c0.3,9.2,0.4,13.6,0.4,13.2
		c0,24-7.9,38.1-23.7,42.4v3.6l13-1.2c9-0.8,16.2-1.2,21.7-1.2h7.7l-9.3-208.1H573.7z"/>
	<path fill="#273D4A" d="M373.2,144.4c6.9-6.9,10.4-16.9,10.4-29.9c0-13.4-3.7-23.7-11.2-30.7c-7.4-6.9-16.3-10.4-26.7-10.4
		c-5.7,0-10.3,1.4-13.8,4.2c-2.4,7.2-3.6,19.5-3.6,37.1v40.1h15.4C356.4,154.7,366.3,151.3,373.2,144.4z"/>
	<path fill="#273D4A" d="M378.2,172.9c-6.8-2.7-16.8-4-29.9-4h-20v35.9c0,25.1,2.7,41,8.2,47.7c4.6,3.6,11.6,5.4,20.9,5.4
		c15.5,0,26.6-4.5,33.3-13.6c6.4-9,9.6-19.6,9.6-31.7c0-9.7-2.1-18-6.2-24.9C389.9,180.6,384.6,175.7,378.2,172.9z"/>
	<path fill="#273D4A" d="M695.4,139.9L434.8,11.5c-12.3-6.1-27.6-6.1-40,0l-98.7,48.7c0.4,0,0.7,0.1,1,0.1v210.2
		c-11.6,0.4-25.5,1.2-41.9,2.4v-3.6c17-4.7,25.5-22.7,25.5-54.1V111.3c0-17.3-3.7-29.8-10.4-38.5l-136.1,67.1
		c-12.2,6-19.7,17.1-19.7,29v257.3c0,12,7.5,23,19.7,29l260.6,128.4c12.3,6.1,27.6,6.1,40,0l195.6-96.4c-7-0.4-12.9-0.6-17.6-0.6
		l-9.5-208.1h6.7c9.6,0,23.1-0.8,40.5-2.4v3.6c-9.1,1.6-16.1,5.8-20.9,12.6c-5.1,6.8-7.7,15.1-7.7,24.9l0.4,21.1l4.3,94.6
		c0.8,17.2,3.5,29.9,8.1,38.1c2.3,4.1,5.2,7.3,8.8,9.7l51.9-25.6c12.2-6,19.7-17.1,19.7-29V168.9
		C715.1,156.9,707.6,145.9,695.4,139.9z M451,213.8c0,12.1-3.5,22.9-10.6,32.3c-7,9.4-15.9,15.7-26.5,18.7
		c12.2-12.9,18.3-29.4,18.3-49.5c0-21.5-6.4-39-19.1-52.3C438.3,172.3,451,189.2,451,213.8z M423.4,80.9c7,8.6,10.6,18.2,10.6,28.7
		c0,9.3-2.9,18.1-8.8,26.3c-5.8,8-13,13.3-21.3,16c8.1-10.6,12.2-23.3,12.2-37.9c0-11.6-2.3-21.9-6.8-31.1
		c-4.6-9.4-10-15.8-16.1-18.9C406.3,66.8,416.4,72.4,423.4,80.9z M331.5,271.4c-8.2-0.7-14.7-1-19.5-1V60.2l34.1-2.4
		c16.9,0,30.3,5.2,40.3,15.7c9.8,10.6,14.7,24.1,14.7,40.5c0,20.5-8.9,35.2-26.7,44.3c28.7,6.5,43.1,25.2,43.1,56
		c0,15.6-4.7,29.2-14.2,40.9c-9.6,11.7-25,17.5-46.3,17.5C349.2,272.8,340.7,272.3,331.5,271.4z M493.7,489L412,314.9l-5.1,117.9
		c-0.2,8.9-0.3,13.8-0.4,14.9c0.1,22.9,8.9,35.5,26.6,37.9v3.6c-0.1,0-2-0.2-5.5-0.6c-14.7-1.2-24.5-1.8-29.2-1.8
		c-6.3,0-17.7,0.8-34.2,2.4v-3.6c16.7-4.3,25.8-21.5,27.2-51.3l5.7-134.8c-7.8-9.7-18.8-16.3-33-19.5v-3.6c10.7,1.2,22,1.8,34.2,2
		l14.4,0.4l90,191.7L493.7,489z M590.5,486.6c-5.5,0-12.8,0.4-21.7,1.2l-13,1.2v-3.6c15.8-4.3,23.7-18.5,23.7-42.4
		c0,0.4-0.1-4-0.4-13.2l-5.1-115.1l-63.2,138.4L429,278.5h16.8l64.8,137.6l63.2-137.6h15.2l9.3,208.1H590.5z"/>
	<g>
		<g>
			<path fill="#FFFFFF" d="M634.7,471c-4.6-8.2-7.3-20.9-8.1-38.1l-4.3-94.6l-0.4-21.1c0-9.7,2.6-18,7.7-24.9
				c4.9-6.8,11.9-11.1,20.9-12.6v-3.6c-17.4,1.6-30.9,2.4-40.5,2.4h-6.7l9.5,208.1c4.7,0,10.6,0.2,17.6,0.6l13.1-6.4
				C639.9,478.4,637,475.1,634.7,471z"/>
			<path fill="#FFFFFF" d="M573.7,278.5l-63.2,137.6l-64.8-137.6H429l81.7,174.5l63.2-138.4l5.1,115.1c0.3,9.2,0.4,13.6,0.4,13.2
				c0,24-7.9,38.1-23.7,42.4v3.6l13-1.2c9-0.8,16.2-1.2,21.7-1.2h7.7l-9.3-208.1H573.7z"/>
			<path fill="#FFFFFF" d="M398.4,278.1c-12.1-0.1-23.5-0.8-34.2-2v3.6c14.2,3.3,25.2,9.8,33,19.5l-5.7,134.8
				c-1.5,29.9-10.5,47-27.2,51.3v3.6c16.5-1.6,27.8-2.4,34.2-2.4c4.7,0,14.5,0.6,29.2,1.8c3.6,0.4,5.4,0.6,5.5,0.6v-3.6
				c-17.7-2.4-26.6-15-26.6-37.9c0,0.4,0,0.3,0-0.2c0,0.1,0,0.2,0,0.2c0.1-1.1,0.2-6,0.4-14.9l5.1-117.9L493.7,489l9.1-18.8
				l-90-191.7L398.4,278.1z"/>
		</g>
		<g>
			<path fill="#FFFFFF" d="M280.9,215.2c0,31.4-8.5,49.4-25.5,54.1v3.6c16.3-1.2,30.3-2,41.9-2.4V60.2c-0.4,0-0.7-0.1-1-0.1
				l-25.7,12.7c6.7,8.7,10.4,21.1,10.4,38.5V215.2z"/>
			<path fill="#FFFFFF" d="M417.5,214.4c0-30.8-14.4-49.5-43.1-56c17.8-9,26.7-23.8,26.7-44.3c0-16.4-4.9-29.8-14.7-40.5
				c-10-10.5-23.4-15.7-40.3-15.7L312,60.2v210.2c4.8,0,11.3,0.3,19.5,1c9.2,0.9,17.7,1.4,25.5,1.4c21.3,0,36.7-5.8,46.3-17.5
				C412.7,243.6,417.5,229.9,417.5,214.4z M328.3,114.7c0-17.6,1.2-29.9,3.6-37.1c3.5-2.8,8-4.2,13.8-4.2c10.4,0,19.3,3.5,26.7,10.4
				c7.5,7.1,11.2,17.3,11.2,30.7c0,13-3.5,23-10.4,29.9c-6.9,6.9-16.8,10.4-29.5,10.4h-15.4V114.7z M390.7,244.3
				c-6.7,9-17.8,13.6-33.3,13.6c-9.3,0-16.3-1.8-20.9-5.4c-5.5-6.7-8.2-22.5-8.2-47.7v-35.9h20c13.2,0,23.1,1.3,29.9,4
				c6.4,2.8,11.7,7.7,16,14.8c4.1,6.9,6.2,15.2,6.2,24.9C400.3,224.7,397.1,235.2,390.7,244.3z"/>
			<path fill="#FFFFFF" d="M409.3,82.9c4.5,9.2,6.8,19.5,6.8,31.1c0,14.6-4.1,27.3-12.2,37.9c8.4-2.7,15.5-8,21.3-16
				c5.8-8.2,8.8-17,8.8-26.3c0-10.5-3.5-20.1-10.6-28.7c-7.1-8.5-17.2-14.2-30.3-17C399.2,67.2,404.6,73.5,409.3,82.9z"/>
			<path fill="#FFFFFF" d="M432.2,215.4c0,20.1-6.1,36.6-18.3,49.5c10.6-3.1,19.5-9.3,26.5-18.7c7.1-9.4,10.6-20.2,10.6-32.3
				c0-24.6-12.6-41.5-37.9-50.7C425.8,176.4,432.2,193.8,432.2,215.4z"/>
		</g>
	</g>
</g>
</svg>
